<svg height="480pt" viewBox="0 0 480 480" width="480pt" xmlns="http://www.w3.org/2000/svg"><path d="m452.71875 335.121094 19.28125 24.878906-19.28125 24.878906 4.320312 31.121094-29.117187 11.921875-11.921875 29.117187-31.121094-4.320312-24.878906 19.28125-24.878906-19.28125-31.121094 4.320312-11.921875-29.117187-29.117187-11.921875 3.359374-24 .960938-7.121094-19.28125-24.878906 19.28125-24.878906-2.082031-15.121094-2.238281-16 29.117187-11.921875 11.921875-29.117187 31.121094 4.320312 16.878906-13.121094 8-6.160156 24.878906 19.28125 7.121094-.960938 24-3.359374 11.921875 29.117187 29.117187 11.921875zm0 0" fill="#ef6461"/><path d="m128 192h-64v32h80v-32zm264-72v146.320312l-7.121094.960938-24.878906-19.28125-8 6.160156v-62.160156h-160v128h73.199219l2.082031 15.121094-19.28125 24.878906 19.28125 24.878906-.960938 7.121094h-122.320312v-136h-80v136h-24c-17.679688 0-32-14.320312-32-32v-240c0 13.28125 10.71875 24 24 24s24-10.71875 24-24c0 13.28125 10.71875 24 24 24s24-10.71875 24-24c0 13.28125 10.71875 24 24 24s24-10.71875 24-24c0 13.28125 10.71875 24 24 24s24-10.71875 24-24c0 13.28125 10.71875 24 24 24s24-10.71875 24-24c0 13.28125 10.71875 24 24 24s24-10.71875 24-24c0 13.28125 10.71875 24 24 24s24-10.71875 24-24c0 13.28125 10.71875 24 24 24s24-10.71875 24-24zm0 0" fill="#bdd5ea"/><path d="m392 96v24c0 13.28125-10.71875 24-24 24s-24-10.71875-24-24v-24zm0 0" fill="#ef6461"/><path d="m368 8 24 88h-48v-88zm0 0" fill="#ef6461"/><path d="m352 192v62.160156l-16.878906 13.121094-31.121094-4.320312-11.921875 29.117187-29.117187 11.921875 2.238281 16h-73.199219v-128zm0 0" fill="#f3f3fb"/><path d="m344 96v24c0 13.28125-10.71875 24-24 24s-24-10.71875-24-24v-24zm0 0" fill="#f3f3fb"/><path d="m296 8h48v88h-48zm0 0" fill="#f3f3fb"/><path d="m296 96v24c0 13.28125-10.71875 24-24 24s-24-10.71875-24-24v-24zm0 0" fill="#ef6461"/><path d="m248 8h48v88h-48zm0 0" fill="#ef6461"/><path d="m248 96v24c0 13.28125-10.71875 24-24 24s-24-10.71875-24-24v-24zm0 0" fill="#f3f3fb"/><path d="m200 8h48v88h-48zm0 0" fill="#f3f3fb"/><path d="m200 96v24c0 13.28125-10.71875 24-24 24s-24-10.71875-24-24v-24zm0 0" fill="#ef6461"/><path d="m152 8h48v88h-48zm0 0" fill="#ef6461"/><path d="m152 96v24c0 13.28125-10.71875 24-24 24s-24-10.71875-24-24v-24zm0 0" fill="#f3f3fb"/><path d="m104 8h48v88h-48zm0 0" fill="#f3f3fb"/><path d="m64 256h80v136h-80zm0 0" fill="#577399"/><path d="m144 192v32h-80v-32zm0 0" fill="#ffbd52"/><path d="m104 96v24c0 13.28125-10.71875 24-24 24s-24-10.71875-24-24v-24zm0 0" fill="#ef6461"/><path d="m56 8h48v88h-48zm0 0" fill="#ef6461"/><path d="m56 96v24c0 13.28125-10.71875 24-24 24s-24-10.71875-24-24v-24zm0 0" fill="#f3f3fb"/><path d="m56 8v88h-48l24-88zm0 0" fill="#f3f3fb"/><g fill="#313b45"><path d="m461.136719 332.894531 3.800781-27.832031c.496094-3.621094-1.523438-7.117188-4.90625-8.496094l-26.007812-10.597656-10.589844-26c-1.378906-3.382812-4.875-5.359375-8.496094-4.914062l-14.9375 2.050781v-161.105469c0-.734375-.230469-1.390625-.414062-2.0625l.132812-.042969-24-88c-.949219-3.480469-4.109375-5.894531-7.71875-5.894531h-336c-3.609375 0-6.769531 2.414062-7.71875 5.894531l-24 88 .132812.042969c-.183593.671875-.414062 1.328125-.414062 2.0625v264c0 22.054688 17.945312 40 40 40h217.105469l-2.042969 14.929688c-.496094 3.621093 1.523438 7.117187 4.90625 8.496093l26.007812 10.597657 10.589844 26c1.386719 3.390624 4.890625 5.402343 8.496094 4.914062l27.832031-3.808594 22.203125 17.191406c1.445313 1.128907 3.175782 1.679688 4.902344 1.679688s3.457031-.550781 4.894531-1.671875l22.203125-17.191406 27.832032 3.808593c3.589843.445313 7.109374-1.53125 8.496093-4.914062l10.589844-26 26.007813-10.597656c3.382812-1.378906 5.402343-4.867188 4.90625-8.496094l-3.800782-27.832031 17.191406-22.203125c2.230469-2.878906 2.230469-6.910156 0-9.796875zm-125.136719-244.894531h-32v-72h32zm-48 0h-32v-72h32zm-48 0h-32v-72h32zm-48 0h-32v-72h32zm-48 0h-32v-72h32zm-48 0h-32v-72h32zm-32 16h32v16c0 8.824219-7.175781 16-16 16s-16-7.175781-16-16zm48 0h32v16c0 8.824219-7.175781 16-16 16s-16-7.175781-16-16zm48 0h32v16c0 8.824219-7.175781 16-16 16s-16-7.175781-16-16zm48 0h32v16c0 8.824219-7.175781 16-16 16s-16-7.175781-16-16zm48 0h32v16c0 8.824219-7.175781 16-16 16s-16-7.175781-16-16zm48 0h32v16c0 8.824219-7.175781 16-16 16s-16-7.175781-16-16zm48 0h32v16c0 8.824219-7.175781 16-16 16s-16-7.175781-16-16zm29.527344-16h-29.527344v-72h9.886719zm-343.414063-72h9.886719v72h-29.527344zm-22.113281 88h32v16c0 8.824219-7.175781 16-16 16s-16-7.175781-16-16zm0 256v-212.449219c4.726562 2.753907 10.144531 4.449219 16 4.449219 9.601562 0 18.128906-4.335938 24-11.054688 5.871094 6.71875 14.398438 11.054688 24 11.054688s18.128906-4.335938 24-11.054688c5.871094 6.71875 14.398438 11.054688 24 11.054688s18.128906-4.335938 24-11.054688c5.871094 6.71875 14.398438 11.054688 24 11.054688s18.128906-4.335938 24-11.054688c5.871094 6.71875 14.398438 11.054688 24 11.054688s18.128906-4.335938 24-11.054688c5.871094 6.71875 14.398438 11.054688 24 11.054688s18.128906-4.335938 24-11.054688c5.871094 6.71875 14.398438 11.054688 24 11.054688s18.128906-4.335938 24-11.054688c5.871094 6.71875 14.398438 11.054688 24 11.054688 5.855469 0 11.273438-1.695312 16-4.449219v108.921875l-19.105469-14.792968c-1.4375-1.128907-3.167969-1.679688-4.894531-1.679688v-48c0-4.425781-3.585938-8-8-8h-160c-4.414062 0-8 3.574219-8 8v128c0 4.425781 3.585938 8 8 8h66.199219l.671875 4.894531-17.191406 22.203125c-2.230469 2.878906-2.230469 6.910156 0 9.796875l14.785156 19.105469h-104.464844v-128c0-4.425781-3.585938-8-8-8h-80c-4.414062 0-8 3.574219-8 8v128h-16c-13.230469 0-24-10.769531-24-24zm243.976562-63.425781c-3.382812 1.378906-5.402343 4.867187-4.90625 8.496093l.945313 6.929688h-56.015625v-112h144v50.273438l-11.105469 8.597656-27.832031-3.808594c-3.648438-.476562-7.109375 1.523438-8.496094 4.914062l-10.589844 26zm-123.976562 87.425781h-64v-120h64zm310.425781-4.039062c-1.320312 1.695312-1.898437 3.847656-1.601562 5.984374l3.414062 25-23.375 9.527344c-1.992187.816406-3.574219 2.390625-4.390625 4.390625l-9.519531 23.375-25-3.421875c-2.121094-.28125-4.289063.296875-5.984375 1.597656l-19.96875 15.464844-19.960938-15.464844c-1.40625-1.085937-3.136718-1.671874-4.894531-1.671874-.359375 0-.71875.027343-1.082031.074218l-25.007812 3.421875-9.519532-23.375c-.816406-2-2.398437-3.574219-4.390625-4.390625l-23.375-9.527344 3.414063-25c.296875-2.136718-.289063-4.289062-1.597656-5.984374l-15.464844-19.960938 15.453125-19.960938c1.320312-1.695312 1.898437-3.847656 1.601562-5.984374l-3.414062-25 23.375-9.527344c1.992187-.816406 3.574219-2.390625 4.390625-4.390625l9.519531-23.375 25 3.421875c2.128906.273437 4.289063-.296875 5.984375-1.597656l19.96875-15.464844 19.960938 15.464844c1.703124 1.300781 3.863281 1.878906 5.984374 1.597656l25.007813-3.421875 9.519531 23.375c.816406 2 2.398438 3.574219 4.390625 4.390625l23.375 9.527344-3.414062 25c-.296875 2.136718.289062 4.289062 1.601562 5.984374l15.453125 19.960938zm0 0"/><path d="m313.816406 402.863281 80.035156-95.957031 12.285157 10.246094-80.035157 95.957031zm0 0"/><path d="m320 328h16v16h-16zm0 0"/><path d="m384 376h16v16h-16zm0 0"/><path d="m64 232h80c4.414062 0 8-3.574219 8-8v-32c0-4.425781-3.585938-8-8-8h-8v-16h-16v16h-32v-16h-16v16h-8c-4.414062 0-8 3.574219-8 8v32c0 4.425781 3.585938 8 8 8zm8-32h64v16h-64zm0 0"/><path d="m210.339844 242.34375 28-28 11.3125 11.3125-28 28zm0 0"/><path d="m218.335938 290.34375 48-47.996094 11.3125 11.3125-47.996094 48zm0 0"/><path d="m282.339844 226.34375 16-16 11.3125 11.316406-16 15.996094zm0 0"/></g></svg>