<svg height="512pt" viewBox="0 0 512 512" width="512pt" xmlns="http://www.w3.org/2000/svg"><path d="m310 438h-268c-17.671875 0-32 14.328125-32 32s14.328125 32 32 32h268c11.046875 0 20-8.953125 20-20v-64c0 11.046875-8.953125 20-20 20zm0 0" fill="#fff"/><path d="m10 474v-318c0-19.882812 16.117188-36 36-36h264c11.046875 0 20 8.953125 20 20v278c0 11.046875-8.953125 20-20 20h-300zm0 0" fill="#ff5d5d"/><path d="m214 10v364h288v-303.5l-60.5-60.5zm0 0" fill="#edf2fa"/><path d="m502 70.5-60.5-60.5v60.5zm0 0" fill="#ffc66c"/><path d="m74 253c-2.628906 0-5.210938 1.070312-7.070312 2.929688-1.859376 1.859374-2.929688 4.441406-2.929688 7.070312s1.070312 5.210938 2.929688 7.070312c1.859374 1.859376 4.441406 2.929688 7.070312 2.929688s5.210938-1.070312 7.070312-2.929688c1.859376-1.859374 2.929688-4.441406 2.929688-7.070312s-1.070312-5.210938-2.929688-7.070312c-1.859374-1.859376-4.441406-2.929688-7.070312-2.929688zm0 0"/><path d="m509.070312 63.429688-60.5-60.5c-1.875-1.875-4.417968-2.929688-7.070312-2.929688h-227.5c-5.523438 0-10 4.476562-10 10v100h-158c-25.363281 0-46 20.636719-46 46v318c0 1.316406.261719 2.570312.722656 3.722656 3.636719 19.480469 20.757813 34.277344 41.277344 34.277344h268c16.542969 0 30-13.457031 30-30v-98h162c5.523438 0 10-4.476562 10-10v-303.5c0-2.652344-1.054688-5.195312-2.929688-7.070312zm-57.570312-29.289063 26.359375 26.359375h-26.359375zm-141.5 457.859375h-268c-12.132812 0-22-9.867188-22-22s9.867188-22 22-22h268c3.507812 0 6.871094-.609375 10-1.71875v35.71875c0 5.515625-4.484375 10-10 10zm10-74c0 5.515625-4.484375 10-10 10h-226.125c.074219-.488281.125-.988281.125-1.5v-120.167969c0-5.519531-4.476562-10-10-10s-10 4.480469-10 10v120.167969c0 .511719.050781 1.011719.125 1.5h-22.125c-8.0625 0-15.597656 2.289062-22 6.242188v-278.242188c0-14.335938 11.664062-26 26-26h158v244c0 5.523438 4.476562 10 10 10h106zm-96-54v-344h207.5v50.5c0 5.523438 4.476562 10 10 10h50.5v283.5zm0 0"/><path d="m452.5 110h-173.289062c-5.523438 0-10 4.476562-10 10s4.476562 10 10 10h173.289062c5.523438 0 10-4.476562 10-10s-4.476562-10-10-10zm0 0"/><path d="m452.5 166h-173.289062c-5.523438 0-10 4.476562-10 10s4.476562 10 10 10h173.289062c5.523438 0 10-4.476562 10-10s-4.476562-10-10-10zm0 0"/><path d="m452.5 222h-173.289062c-5.523438 0-10 4.476562-10 10s4.476562 10 10 10h173.289062c5.523438 0 10-4.476562 10-10s-4.476562-10-10-10zm0 0"/><path d="m452.5 278h-131.5c-5.523438 0-10 4.476562-10 10s4.476562 10 10 10h131.5c5.523438 0 10-4.476562 10-10s-4.476562-10-10-10zm0 0"/><path d="m279.210938 278c-2.632813 0-5.210938 1.070312-7.070313 2.929688-1.859375 1.859374-2.929687 4.441406-2.929687 7.070312s1.070312 5.210938 2.929687 7.070312c1.859375 1.859376 4.4375 2.929688 7.070313 2.929688 2.628906 0 5.210937-1.070312 7.070312-2.929688 1.859375-1.859374 2.929688-4.441406 2.929688-7.070312s-1.070313-5.210938-2.929688-7.070312c-1.859375-1.859376-4.441406-2.929688-7.070312-2.929688zm0 0"/></svg>